<svg xmlns="http://www.w3.org/2000/svg" viewBox="0 0 57.91 57.91"><defs><style>.cls-1{fill:#d3be82;}</style></defs><title>dice_314</title><g id="Layer_2" data-name="Layer 2"><g id="Layer_5" data-name="Layer 5"><rect class="cls-1" x="27.14" y="52.11" width="3.62" height="5.8"/><rect class="cls-1" x="27.14" width="3.62" height="5.8"/><rect class="cls-1" x="52.11" y="27.14" width="5.8" height="3.62"/><rect class="cls-1" y="27.14" width="5.8" height="3.62"/><rect class="cls-1" x="50.55" y="18.23" width="5.79" height="3.62" transform="translate(-3.63 19.47) rotate(-19.99)"/><rect class="cls-1" x="1.58" y="36.05" width="5.79" height="3.62" transform="translate(-12.67 3.81) rotate(-19.99)"/><rect class="cls-1" x="46.01" y="10.39" width="5.8" height="3.62" transform="translate(3.59 34.27) rotate(-39.96)"/><rect class="cls-1" x="6.1" y="43.88" width="5.8" height="3.62" transform="translate(-27.26 16.46) rotate(-39.99)"/><rect class="cls-1" x="36.65" y="3.34" width="5.8" height="3.62" transform="translate(18.77 39.19) rotate(-66.02)"/><rect class="cls-1" x="15.46" y="50.95" width="5.8" height="3.62" transform="translate(-37.31 48.09) rotate(-66.02)"/><rect class="cls-1" x="18.23" y="1.57" width="3.62" height="5.79" transform="translate(-0.32 7.11) rotate(-19.98)"/><rect class="cls-1" x="36.05" y="50.54" width="3.62" height="5.79" transform="translate(-15.98 16.15) rotate(-19.98)"/><rect class="cls-1" x="9.72" y="6.68" width="3.62" height="5.8" transform="translate(-3.45 10.19) rotate(-42.05)"/><rect class="cls-1" x="44.59" y="45.41" width="3.62" height="5.8" transform="translate(-20.41 43.51) rotate(-42.05)"/><rect class="cls-1" x="2.99" y="16.3" width="3.62" height="5.8" transform="translate(-14.8 16.45) rotate(-67.99)"/><rect class="cls-1" x="51.3" y="35.82" width="3.62" height="5.8" transform="translate(-2.69 73.45) rotate(-67.99)"/><path class="cls-1" d="M35.56,39.3l9-.89a1.25,1.25,0,0,0,1-1.84l-4.27-7.94a1.25,1.25,0,0,0-1.1-.66h0a1.25,1.25,0,0,0-1.1.66L37.27,32l-6.62-3.52,3.52-6.62,3.31,1.76a1.25,1.25,0,0,0,1.83-1.23l-.89-9a1.25,1.25,0,0,0-1.84-1l-7.94,4.27a1.25,1.25,0,0,0,0,2.2L32,20.64l-3.52,6.62-6.63-3.52,1.76-3.31a1.25,1.25,0,0,0-1.23-1.83l-9,.89a1.25,1.25,0,0,0-1,1.84l4.27,7.94a1.25,1.25,0,0,0,1.1.66,1.35,1.35,0,0,0,1.1-.66l1.76-3.31,6.63,3.52-3.52,6.62-3.31-1.76a1.25,1.25,0,0,0-1.83,1.23l.89,9a1.25,1.25,0,0,0,1.84,1l7.94-4.27a1.25,1.25,0,0,0,0-2.2l-3.31-1.76,3.52-6.62,6.62,3.52-1.76,3.31a1.25,1.25,0,0,0,1.1,1.84Z"/></g></g></svg>