<?xml version="1.0" encoding="utf-8"?>
<!-- Generator: Adobe Illustrator 15.1.0, SVG Export Plug-In . SVG Version: 6.00 Build 0)  -->
<!DOCTYPE svg PUBLIC "-//W3C//DTD SVG 1.1//EN" "http://www.w3.org/Graphics/SVG/1.1/DTD/svg11.dtd">
<svg version="1.1" xmlns="http://www.w3.org/2000/svg" xmlns:xlink="http://www.w3.org/1999/xlink" x="0px" y="0px" width="18px"
	 height="18px" viewBox="0 0 18 18" enable-background="new 0 0 18 18" xml:space="preserve">
<g id="Verwalten" display="none">
	<g display="inline">
		<path fill="#FFFFFF" d="M15.529,11.053c0,0,2.471-0.973,2.471-1.106V7.971c0-0.136-2.476-1.035-2.476-1.035l-0.455-1.103
			c0,0,1.058-2.437,0.965-2.53l-1.399-1.396c-0.096-0.095-2.481,1.017-2.481,1.017L11.051,2.47c0,0-0.971-2.47-1.105-2.47H7.971
			C7.834,0,6.934,2.475,6.934,2.475L5.835,2.931c0,0-2.437-1.058-2.53-0.963L1.908,3.365C1.811,3.462,2.924,5.849,2.924,5.849
			L2.469,6.949c0,0-2.469,0.972-2.469,1.103v1.978c0,0.139,2.476,1.038,2.476,1.038l0.453,1.099c0,0-1.056,2.437-0.963,2.53
			l1.399,1.398c0.094,0.095,2.48-1.019,2.48-1.019l1.103,0.456c0,0,0.972,2.468,1.106,2.468h1.977c0.136,0,1.037-2.475,1.037-2.475
			l1.102-0.455c0,0,2.432,1.058,2.524,0.964l1.4-1.398c0.097-0.097-1.019-2.481-1.019-2.481L15.529,11.053z M9,11.885
			c-1.59,0-2.887-1.295-2.887-2.885S7.411,6.118,9,6.118c1.589,0,2.884,1.292,2.884,2.882S10.59,11.885,9,11.885z"/>
	</g>
</g>
<g id="Kategorien" display="none">
	<g display="inline">
		<polygon fill="#FFFFFF" points="9,6 10,3 1,3 1,6 		"/>
		<polygon fill="#FFFFFF" points="12,3 10,7 0,7 0,15 18,15 18,3 		"/>
	</g>
</g>
<g id="Eintrag" display="none">
	<g display="inline">
		<polygon fill="#FFFFFF" points="16,14 16,0 2,0 2,18 12,18 12,14 		"/>
		<polygon fill="#FFFFFF" points="13,15 13,18 16,15 		"/>
	</g>
</g>
<g id="Hinzufügen" display="none">
	<g display="inline">
		<path fill="#FFFFFF" d="M9,0C4.03,0,0,4.029,0,8.999C0,13.969,4.03,18,9,18c4.972,0,9-4.031,9-9.001C18,4.029,13.972,0,9,0z
			 M9,16.604c-4.199,0-7.604-3.406-7.604-7.606C1.395,4.799,4.8,1.395,9,1.395c4.2,0,7.605,3.404,7.605,7.604
			C16.604,13.198,13.199,16.604,9,16.604z"/>
		<polygon fill="#FFFFFF" points="10,5 8,5 8,8 5,8 5,10 8,10 8,13 10,13 10,10 13,10 13,8 10,8 		"/>
	</g>
</g>
<g id="Import" display="none">
	<g display="inline">
		<polygon fill="#FFFFFF" points="13,15 13,18 16,15 		"/>
		<path fill="#FFFFFF" d="M2,0v18h10v-4h4V0H2z M15,13h-4v4H3V1h12V13z"/>
		<polygon fill="#FFFFFF" points="9,3 5,7 7,7 7,12 11,12 11,7 13,7 		"/>
	</g>
</g>
<g id="Suche" display="none">
	<path display="inline" fill="#FFFFFF" d="M16.255,1.772c-2.332-2.352-6.133-2.365-8.483-0.031c-2.219,2.204-2.356,5.712-0.4,8.076
		L7.393,9.84c0.395,0.452,0.549,0.619,0.885,0.865c2.347,1.862,5.771,1.718,7.951-0.447C18.579,7.922,18.593,4.124,16.255,1.772z
		 M15.172,9.192c-1.763,1.753-4.613,1.742-6.364-0.021C7.057,7.407,7.065,4.559,8.829,2.807c1.763-1.752,4.613-1.738,6.362,0.023
		C16.944,4.592,16.934,7.443,15.172,9.192z"/>
	<polygon display="inline" fill="#FFFFFF" points="0,16 2,18 7,12 6,11 	"/>
</g>
<g id="Verschieben" display="none">
	<g display="inline">
		<path fill="#FFFFFF" d="M11,5l0.021-5H2v12h2c-1-1-1-1-1-1V1h7v4H8L7,6l1,1V6h2.133H15v9h-2v2H8v-3c-1,0,0,0-1,0v4h6.834L16,16V5
			H11z"/>
		<path fill="#FFFFFF" d="M9,13.013v2.28c0,0.08,0.03,0.152,0.104,0.188c0.074,0.034,0.153,0.023,0.217-0.027l5.1-4.13
			c0.048-0.038,0.075-0.096,0.075-0.158c0-0.059-0.031-0.118-0.078-0.158L9.368,6.824C9.305,6.772,9.234,6.762,9.16,6.794
			C9.085,6.827,9,6.898,9,6.981v2.106c0-0.024-0.281-0.053-0.424-0.082c-0.29-0.061-0.554-0.131-0.784-0.212
			C7.079,8.547,6.631,8.202,6.478,7.761C6.04,6.491,6.701,4.275,8.155,2.853c0.077-0.074,0.082-0.194,0.014-0.277
			C8.128,2.525,8.066,2.5,8.004,2.5c-0.04,0-0.08,0.011-0.116,0.033c-4.062,2.592-4.692,5.064-4.285,7
			c0.13,0.614,0.484,1.145,0.983,1.599c0.334,0.305,0.734,0.574,1.175,0.81c0.615,0.33,1.311,0.594,2.022,0.794
			c0.257,0.072,0.533,0.137,0.791,0.193C8.715,12.959,9,12.984,9,13.013z"/>
	</g>
</g>
<g id="Gruppen" display="none">
	<g display="inline">
		<g>
			<g>
				<path fill="#FFFFFF" d="M9.32,9.226c-1.104-0.4-1.111-0.802-1.111-0.802c-2.17,4.414-3.817,0.012-3.817,0.012
					C4.239,9.032,2.006,9.731,2.006,9.731c-0.652,0.259-0.928,0.646-0.928,0.646C0.113,11.854,0,15.141,0,15.141
					c0.013,0.748,0.326,0.827,0.326,0.827c2.22,1.021,5.701,1.203,5.701,1.203c3.575,0.078,6.177-1.049,6.177-1.049
					c0.378-0.244,0.389-0.438,0.389-0.438c0.264-2.354-0.865-5.007-0.865-5.007C11.388,9.899,9.32,9.226,9.32,9.226z"/>
				<path fill="#FFFFFF" d="M3.844,6.093c0.165,1.418,1.349,2.89,2.423,2.89c1.233,0,2.407-1.547,2.59-2.89
					c0.068-0.05,0.184-0.174,0.224-0.454c0,0,0.264-0.973-0.085-0.867c0.123-0.376,0.527-1.838-0.257-2.745
					c0,0-1.395-1.449-2.754-1.164c0,0-1.932,0.58-2.307,1.785c0,0-0.221,0.544,0.071,2.143C3.333,4.587,3.617,5.639,3.617,5.639
					C3.659,5.92,3.773,6.042,3.844,6.093z"/>
			</g>
		</g>
		<g>
			<g>
				<path fill="#FFFFFF" d="M15.423,10.084c-0.859-0.312-0.865-0.624-0.865-0.624c-1.688,3.433-2.969,0.009-2.969,0.009
					c-0.118,0.464-1.855,1.007-1.855,1.007c-0.506,0.202-0.721,0.504-0.721,0.504c-0.75,1.147-0.839,3.704-0.839,3.704
					c0.011,0.582,0.253,0.643,0.253,0.643c1.727,0.795,4.435,0.937,4.435,0.937c2.78,0.06,4.804-0.815,4.804-0.815
					c0.294-0.19,0.303-0.342,0.303-0.342c0.205-1.831-0.673-3.895-0.673-3.895C17.031,10.607,15.423,10.084,15.423,10.084z"/>
				<path fill="#FFFFFF" d="M11.163,7.647c0.129,1.103,1.05,2.248,1.885,2.248c0.959,0,1.872-1.203,2.015-2.248
					c0.053-0.04,0.143-0.135,0.175-0.354c0,0,0.205-0.756-0.066-0.674c0.096-0.293,0.409-1.43-0.201-2.136
					c0,0-1.083-1.126-2.142-0.905c0,0-1.503,0.452-1.794,1.389c0,0-0.172,0.423,0.056,1.667c-0.324-0.158-0.104,0.66-0.104,0.66
					C11.02,7.513,11.108,7.608,11.163,7.647z"/>
			</g>
		</g>
	</g>
</g>
<g id="Newsl" display="none">
	<polygon display="inline" fill="#FFFFFF" points="13,15 13,18 16,15 	"/>
	<path display="inline" fill="#FFFFFF" d="M2,0v18h10v-4h4V0H2z M10,6h3v1h-3V6z M4,2h5v5H4V2z M9,15H4v-1h5V15z M11,13H4v-1h7V13z
		 M14,11H4v-1h10V11z M14,9H4V8h10V9z M14,5h-4V4h4V5z M14,3h-4V2h4V3z"/>
</g>
<g id="Passwort" display="none">
	<g display="inline">
		<path fill="#FFFFFF" d="M8.999,12.279C8.519,12.279,8,12.673,8,13.156v2.325c0,0.479,0.519,0.87,0.999,0.87
			c0.483,0,1.001-0.391,1.001-0.87v-2.325C10,12.673,9.481,12.279,8.999,12.279z"/>
		<path fill="#FFFFFF" d="M15.209,9H14V6c0-1.509-0.426-3.325-1.371-4.34C11.682,0.648,10.412,0,8.926,0
			C7.442,0,6.281,0.648,5.338,1.66C4.388,2.675,4,4.491,4,6v3H2.79C2.415,9,2,8.919,2,9.295v8.022C2,17.696,2.415,18,2.79,18h12.419
			C15.587,18,16,17.696,16,17.317V9.295C16,8.919,15.587,9,15.209,9z M11,15.773c0,0.833-1.164,1.51-2,1.51c-0.835,0-2-0.677-2-1.51
			v-2.785c0-0.83,1.165-1.513,2-1.513c0.836,0,2,0.683,2,1.513V15.773z M12,9H6V6c0-1.229,0.335-2.479,0.798-2.973
			C7.46,2.315,8.116,2,8.926,2c0.851,0,1.605,0.345,2.243,1.027C11.649,3.542,12,4.794,12,6V9z"/>
	</g>
</g>
<g id="Bearbeiten" display="none">
	<g display="inline">
		<rect x="6" y="7" fill="#FFFFFF" width="1" height="11"/>
		<rect x="8" y="7" fill="#FFFFFF" width="2" height="11"/>
		<rect x="11" y="7" fill="#FFFFFF" width="1" height="11"/>
		<polygon fill="#FFFFFF" points="9,0 6,6 12,6 		"/>
	</g>
</g>
<g id="Grunddaten" display="none">
	<g display="inline">
		<rect fill="#FFFFFF" width="13" height="4"/>
		<rect y="7" fill="#FFFFFF" width="18" height="4"/>
		<rect y="14" fill="#FFFFFF" width="13" height="4"/>
	</g>
</g>
<g id="Dokumente" display="none">
	<path display="inline" fill-rule="evenodd" clip-rule="evenodd" fill="#FFFFFF" d="M10,3V1c0,0,0.041-1-1.5-1S7,1,7,1v2H6
		c0,0,0.141-1-0.5-1C4.938,2,5,3,5,3l0,0H3v15h8.471L15,15V3H10z M8.5,1C9.016,1,9,1.472,9,1.472V3H8V1.472C8,1.472,7.984,1,8.5,1z
		 M9.012,4L9,7c0,0-0.141,1-1.5,1S6,7,6,7V4H9.012z M14,14.001L11,14v3l-7,0.032V4h1v3c0,0,0.031,2,2.5,2S10,7,10,7V4h4V14.001z"/>
</g>
<g id="Bilder" display="none">
	<path display="inline" fill="#FFFFFF" d="M17.635,1H0.365C0.163,1,0,1.163,0,1.363v15.211c0,0.201,0.163,0.363,0.365,0.363h17.27
		c0.203,0,0.365-0.162,0.365-0.363V1.363C18,1.163,17.838,1,17.635,1z M17,14h-1c-0.392-2-1-5-2.5-5c-1.441,0-2.5,5-2.5,5
		s-1-7-3.5-7.033C4.713,6.93,4,14,4,14H1V2h16V14z"/>
	<circle display="inline" fill="#FFFFFF" cx="4.222" cy="4.221" r="1.221"/>
	<path display="inline" fill="#FFFFFF" d="M11.702,5.857c0.275,0,0.532-0.028,0.761-0.075c0.267,0.114,0.59,0.184,0.942,0.184
		c0.899,0,1.628-0.44,1.628-0.983S14.305,4,13.405,4c-0.34,0-0.652,0.062-0.913,0.168C12.386,4.064,12.242,4,12.084,4h-0.238
		c-0.301,0-0.538,0.229-0.574,0.521C10.541,4.598,10,4.861,10,5.177C10,5.553,10.763,5.857,11.702,5.857z"/>
</g>
<g id="Querverweise" display="none">
	<g display="inline">
		<path fill="#FFFFFF" d="M11.974,6.322l-1.26,2.512L18,8.025L14.391,1.5l-1.279,2.551c-3.252-1.438-6.715-1.41-9.779-0.201
			c-0.095,0.039-0.225,0.059-0.32,0.1l0.441,2.607C6.052,5.284,9.106,5.112,11.974,6.322z"/>
		<path fill="#FFFFFF" d="M6.027,11.677l1.259-2.512L0,9.973L3.609,16.5l1.279-2.552c3.253,1.439,6.715,1.409,9.777,0.201
			c0.097-0.036,0.227-0.059,0.321-0.101l-0.44-2.605C11.947,12.716,8.893,12.887,6.027,11.677z"/>
	</g>
</g>
<g id="Logo-Banner" display="none">
	<g display="inline">
		<path fill="#FFFFFF" d="M9,18c6.848-3.741,7-13,7-13H2C2,5,2.016,14.305,9,18z"/>
		<path fill="#FFFFFF" d="M15,0c0,1.367-1.133,2.475-2.5,2.475C11.135,2.475,10,1.367,10,0H8c0,1.367-1.133,2.475-2.5,2.475
			S3,1.367,3,0H2v4h14V0H15z"/>
	</g>
</g>
<g id="Verknüpfung" display="none">
	<g display="inline">
		<path fill="#FFFFFF" d="M12,13v-3h1c-0.508-0.218-0.74-0.29-0.74-0.29c-1.187-0.417-1.195-0.836-1.195-0.836
			C8.73,13.476,6.958,8.887,6.958,8.887C6.844,9.321,5.716,9.746,5,10h1v3H3c-1,2-0.765,2.877-0.765,2.877
			c0.014,0.782,0.35,0.864,0.35,0.864c2.389,1.065,6.133,1.255,6.133,1.255c3.845,0.081,6.646-1.092,6.646-1.092
			c0.406-0.256,0.417-0.461,0.417-0.461c0.167-1.44-0.464-2.41-0.781-3.443H12z"/>
		<path fill="#FFFFFF" d="M6.191,2.85c0,0-0.238,0.567,0.077,2.234C5.821,4.873,6.125,5.968,6.125,5.968
			C6.171,6.262,6.294,6.39,6.37,6.443c0.179,1.48,1.452,3.013,2.606,3.013c1.328,0,2.588-1.612,2.786-3.013
			c0.074-0.053,0.197-0.182,0.242-0.475c0,0,0.284-1.014-0.092-0.906c0.132-0.391,0.565-1.914-0.275-2.861C11.637,2.202,11,1,9,1
			S6.191,2.85,6.191,2.85z"/>
		<polygon fill="#FFFFFF" points="3,1 5,1 5,0 2,0 2,3 3,3 		"/>
		<polygon fill="#FFFFFF" points="13,0 13,1 15,1 15,3 16,3 16,0 		"/>
		<polygon fill="#FFFFFF" points="5,11 3,11 3,9 2,9 2,12 5,12 		"/>
		<polygon fill="#FFFFFF" points="15,11 13,11 13,12 16,12 16,9 15,9 		"/>
	</g>
</g>
<g id="QR-Code" display="none">
	<path display="inline" fill="#FFFFFF" d="M2,2v9h9V2H2z M9.714,9.714H3.286V3.286h6.429V9.714z"/>
	<path display="inline" fill="#FFFFFF" d="M0,0v18h18V0H0z M17,17H1V1h16V17z"/>
	<rect x="5" y="5" display="inline" fill="#FFFFFF" width="3" height="3"/>
	<rect x="12" y="2" display="inline" fill="#FFFFFF" width="4" height="4"/>
	<rect x="12" y="7" display="inline" fill="#FFFFFF" width="4" height="4"/>
	<rect x="12" y="12" display="inline" fill="#FFFFFF" width="4" height="4"/>
	<rect x="7" y="12" display="inline" fill="#FFFFFF" width="4" height="4"/>
	<rect x="2" y="12" display="inline" fill="#FFFFFF" width="4" height="4"/>
</g>
<g id="typen" display="none">
	<g display="inline">
		<polygon fill="#FFFFFF" points="9,11.116 3.255,7.557 1,8.954 9,13.912 17,8.954 14.745,7.557 		"/>
		<polygon fill="#FFFFFF" points="9,15.205 3.255,11.646 1,13.043 9,18 17,13.043 14.745,11.646 		"/>
		<polygon fill="#FFFFFF" points="17,4.957 9,0 1,4.957 9,9.915 		"/>
	</g>
</g>
<g id="Karte" display="none">
	<g display="inline">
		<path fill="#FFFFFF" d="M9,6c1.012,0,2-0.987,2-2c0-1.012-0.988-2-2-2C7.987,2,7,2.988,7,4C7,5.013,7.987,6,9,6z"/>
		<path fill="#FFFFFF" d="M12,8c0.484-1.17,1-3.515,1-4c0-2.175-1.826-4-4-4C6.825,0,5,1.825,5,4c0,0.425,0.507,2.652,1,4H1v10h16V8
			H12z M9,1c1.387,0,3,1,3,3s-1.613,3-3,3C7.614,7,6,6,6,4S7.614,1,9,1z M16,17H2V9h4c1.011,2.76,3,6,3,6s1.846-3.24,3-6h4V17z"/>
	</g>
</g>
<g id="ranking" display="none">
	<g display="inline">
		<ellipse fill="#FFFFFF" cx="4.8" cy="4.459" rx="0.876" ry="0.811"/>
		<ellipse fill="#FFFFFF" cx="8.802" cy="2.393" rx="1.503" ry="1.393"/>
		<ellipse fill="#FFFFFF" cx="13.138" cy="4.505" rx="0.876" ry="0.813"/>
		<rect x="3" y="15" fill="#FFFFFF" width="12" height="2"/>
		<ellipse fill="#FFFFFF" cx="16.499" cy="4.203" rx="1.502" ry="1.394"/>
		<ellipse fill="#FFFFFF" cx="1.502" cy="4.254" rx="1.502" ry="1.393"/>
		<path fill="#FFFFFF" d="M14.808,5.855l-2.057,1.909l0.173-1.945c0,0-0.283-0.439-0.653-0.084l-1.246,1.642L9.402,4.743
			c0,0-0.447-0.471-1.203,0l-1.583,2.57L5.543,5.735c0,0-0.274-0.448-0.619,0.029l0.113,2.12L3.008,5.855
			c0,0-0.626-0.26-0.925,0.368L3,14h12l1.011-7.587C16.011,6.413,15.809,5.457,14.808,5.855z"/>
	</g>
</g>
<g id="Übersetzungen" display="none">
	<path display="inline" fill="#FFFFFF" d="M9,0C4.03,0,0,4.029,0,9c0,4.971,4.03,9,9,9c4.971,0,9-4.028,9-9C18,4.029,13.971,0,9,0z
		 M12.383,3.572l0.644-0.431c0,0-0.271-0.693-0.226-1.034c0.157-0.075,0.791,0.257,1.327,0.821
		c-0.361,1.342-1.207,1.182-1.207,1.182S12.302,4.096,12.383,3.572z M6.958,11.495c-0.041,0.202-0.283,0.686-0.443,1.007
		c-0.161,0.322-0.241,0.443-0.443,0.604c-0.201,0.164-0.322,0.444-0.322,0.444L5.71,14.234c0,0,0.079,0.565,0.199,0.768
		c0.12,0.2-0.432,1.4-0.432,1.4c-0.349-0.069-0.544-0.475-0.666-0.797c-0.121-0.323-0.281-0.494-0.241-0.855
		c0.04-0.363-0.313-0.554-0.433-0.756c-0.12-0.203-0.282-0.483-0.282-0.685c0-0.203-0.443-0.485-0.443-0.485
		s-0.806-0.362-0.926-0.522c-0.122-0.161-0.243-0.848-0.283-1.129c-0.04-0.281,0.121-1.005,0.121-1.005s0.325-0.246,0.12-0.444
		C2.244,9.522,2.204,8.997,2.204,8.997L1.841,8.595c0,0-0.282-0.403-0.321-0.604c-0.041-0.201,0-0.323,0.04-0.524
		c0.04-0.202-0.08-0.564-0.08-0.765C2.984,3.01,5.507,2.149,5.507,2.149L5.71,2.994c0,0-0.443,0.121-0.685,0.042
		C4.784,2.955,4.662,2.955,4.662,2.955L4.34,3.397c0,0-0.122,0.283-0.163,0.444c-0.04,0.162,0.08,0.402,0.08,0.402
		s0.564,0.041,0.564-0.121c0-0.161-0.079-0.241-0.079-0.241L4.662,3.599c0,0,0.364-0.202,1.328-0.122
		C6.958,3.559,6.597,4.243,7,4.405c0.403,0.161-0.324,0.724-0.484,1.046C6.354,5.773,6.113,5.048,6.113,5.048
		s0.242-0.279-0.162-0.362c-0.403-0.079-0.67,0.725-0.465,0.686c0.2-0.04,0.425,0.217,0.385,0.417
		C5.83,5.992,5.83,5.976,5.628,6.417C5.427,6.862,4.989,7.189,4.989,7.189S4.784,7.064,4.903,7.306
		c0.123,0.242-0.04,0.806-0.04,0.968c0,0.159-0.483-0.283-0.563-0.687c-0.082-0.401-0.554-0.052-0.715-0.01
		C3.423,7.617,3.13,7.506,3.052,7.306C2.97,7.104,2.244,7.708,2.042,7.829C1.841,7.95,1.922,8.273,2.244,8.111
		C2.565,7.95,2.847,8.071,2.768,8.395c-0.08,0.32-0.402,0.121-0.362,0.32c0.039,0.202,0.362,0.403,0.441,0.688
		c0.082,0.28,0.848,0.04,1.088-0.081c0.242-0.123,0.928-0.243,1.007,0.081C5.026,9.724,5.79,9.843,6.072,9.922
		c0.283,0.082,0.846,0.123,1.169,0.445C7.563,10.689,7,11.294,6.958,11.495z M8.771,2.067C8.729,2.471,8.087,2.994,8.168,3.156
		c0.08,0.162,0,0.852-0.565,0.247c-0.564-0.604-1.129-0.81-1.087-1.214C6.524,2.107,7.099,1.981,7.107,1.84
		c0.855-0.794,2.219-0.631,2.324-0.443C9.187,1.798,8.811,1.664,8.771,2.067z M16.063,9.254c0,0,0.311,0.457,0.754,0.428
		c-0.291,3.369-3.104,5.535-3.104,5.535c-0.43-0.432-0.215-0.807-0.215-0.807l0.121-0.645l0.067-1.088c0,0,0-1.127-1.074-0.592
		c-1.154,0.295-0.673,0.295-1.841,0.376S9.797,10.08,9.797,10.08c0-3.687,2.827-0.905,2.827-0.905
		c1.614,1.074,1.827-0.89,1.827-0.89l1.183-0.427l0.107-0.538l-0.172-0.751L13.854,5.86c0,0-0.167,0.557,0.274,1.244
		c0,0-0.146,0.779-0.509,0.578l-0.995-0.5c0,0-0.334-0.145-0.871,0.179c-0.539,0.321-1.449-0.016-1.449-0.016
		s0.074-0.541,0.639-0.821l0.462-0.306c0,0-0.121-0.551-0.015-0.981c0.105-0.429,0.295-0.053,0.726-0.375
		c0.428-0.321,0.725,0.63,1.368,0.524c0.645-0.108,0.323-0.215,0.755-0.43c0.429-0.215,0.751,0.43,0.751,0.43l0.858,0.106
		c0,0-0.134-0.971-0.075-0.719c0.544,0.935,1.341,3.429,1.045,3.874c-0.176-0.079-0.323-0.146-0.323-0.146h-1.076L16.063,9.254z"/>
</g>
<g id="Save" display="none">
	<path display="inline" fill="#FFFFFF" d="M16.989,2.345L13.163,5.27C11.889,3.301,9.521,2,7,2C3.046,2,0,5.11,0,9.063
		c0,3.954,3.204,7.247,7.157,7.247c3.952,0,7.157-3.203,7.157-7.157c0-1.073-0.243-2.087-0.668-3.002
		c1.653-1.651,3.159-3.158,3.748-3.747C18.963,0.835,16.989,2.345,16.989,2.345z M13.119,9.152c0,3.293-2.669,5.962-5.962,5.962
		C3.865,15.114,1,12.293,1,9c0-3.292,2.708-6,6-6c2.133,0,4.156,1.315,5.211,2.999L7.478,9.617L5.164,7.287L3.812,8.638l3.393,3.415
		c0.149,0.149,0.391,0.149,0.54,0c0,0,2.501-2.5,4.99-4.989C12.979,7.714,13.119,8.417,13.119,9.152z"/>
</g>
<g id="Delete">
	<path fill="#FFFFFF" d="M15.006,5.115c-1.274-1.968-3.643-3.27-6.163-3.27c-3.954,0-7,3.11-7,7.063
		c0,3.954,3.204,7.247,7.157,7.247c3.952,0,7.157-3.203,7.157-7.157c0-1.073-0.243-2.087-0.668-3.002L15.006,5.115z M14.577,6.909
		c0.245,0.65,0.385,1.353,0.385,2.089c0,3.293-2.669,5.961-5.962,5.961c-3.292,0-6.157-2.82-6.157-6.114c0-3.292,2.708-6,6-6
		c2.133,0,4.156,1.315,5.211,2.999L14.577,6.909z"/>
	<rect x="8" y="5" transform="matrix(0.7072 0.707 -0.707 0.7072 8.9976 -3.728)" fill="#FFFFFF" width="2" height="8"/>
	<rect x="8" y="5" transform="matrix(-0.7071 0.7071 -0.7071 -0.7071 21.7275 9.0002)" fill="#FFFFFF" width="2" height="7.999"/>
</g>
</svg>
