<?xml version="1.0" encoding="utf-8"?>
<!-- Generator: Adobe Illustrator 19.2.1, SVG Export Plug-In . SVG Version: 6.00 Build 0)  -->
<svg version="1.1" id="Ebene_1" xmlns="http://www.w3.org/2000/svg" xmlns:xlink="http://www.w3.org/1999/xlink" x="0px" y="0px"
	 viewBox="0 0 32 32" style="enable-background:new 0 0 32 32;" xml:space="preserve">
<style type="text/css">
	.st0{fill:#FFFFFF;}
</style>
<g>
	<path class="st0" d="M5.3,18h21.3c0.7,0,1.3-0.7,1.3-1.5S27.4,15,26.7,15H5.3C4.6,15,4,15.7,4,16.5S4.6,18,5.3,18z"/>
	<path class="st0" d="M5.3,10h21.3c0.7,0,1.3-0.7,1.3-1.5S27.4,7,26.7,7H5.3C4.6,7,4,7.7,4,8.5S4.6,10,5.3,10z"/>
	<path class="st0" d="M5.3,26h21.3c0.7,0,1.3-0.7,1.3-1.5S27.4,23,26.7,23H5.3C4.6,23,4,23.7,4,24.5S4.6,26,5.3,26z"/>
</g>
</svg>
