<?xml version="1.0" encoding="utf-8"?>
<!-- Generator: Adobe Illustrator 19.2.1, SVG Export Plug-In . SVG Version: 6.00 Build 0)  -->
<svg version="1.1" id="Ebene_1" xmlns="http://www.w3.org/2000/svg" xmlns:xlink="http://www.w3.org/1999/xlink" x="0px" y="0px"
	 viewBox="0 0 32 32" style="enable-background:new 0 0 32 32;" xml:space="preserve">
<style type="text/css">
	.st0{fill:#FFFFFF;}
</style>
<g>
	<path class="st0" d="M16,1C7.7,1,1,7.7,1,16s6.7,15,15,15s15-6.7,15-15S24.3,1,16,1z M23,10.5L17.4,16l4.9,5.5c0.4,0.4,0.4,1,0,1.4
		s-1,0.4-1.4,0L16,17.5L10.5,23c-0.4,0.4-1,0.4-1.4,0s-0.4-1,0-1.4l5.6-5.6l-4.9-5.5c-0.4-0.4-0.4-1,0-1.4s1-0.4,1.4,0l4.9,5.5
		L21.5,9c0.4-0.4,1-0.4,1.4,0C23.3,9.4,23.3,10.1,23,10.5z"/>
</g>
</svg>
