<?xml version="1.0" encoding="utf-8"?>
<!-- Generator: Adobe Illustrator 19.2.1, SVG Export Plug-In . SVG Version: 6.00 Build 0)  -->
<svg version="1.1" id="Ebene_1" xmlns="http://www.w3.org/2000/svg" xmlns:xlink="http://www.w3.org/1999/xlink" x="0px" y="0px"
	 viewBox="0 0 32 32" style="enable-background:new 0 0 32 32;" xml:space="preserve">
<style type="text/css">
	.st0{fill:#FFFFFF;}
</style>
<g>
	<path class="st0" d="M6,14h6c1.1,0,2-0.9,2-2V6c0-1.1-0.9-2-2-2H6C4.9,4,4,4.9,4,6v6C4,13.1,4.9,14,6,14z M20,14h6c1.1,0,2-0.9,2-2
		V6c0-1.1-0.9-2-2-2h-6c-1.1,0-2,0.9-2,2v6C18,13.1,18.9,14,20,14z M4,26c0,1.1,0.9,2,2,2h6c1.1,0,2-0.9,2-2v-6c0-1.1-0.9-2-2-2H6
		c-1.1,0-2,0.9-2,2V26z M18,26c0,1.1,0.9,2,2,2h6c1.1,0,2-0.9,2-2v-6c0-1.1-0.9-2-2-2h-6c-1.1,0-2,0.9-2,2V26z"/>
</g>
</svg>
