<?xml version="1.0" encoding="utf-8"?>
<!-- Generator: Adobe Illustrator 18.1.0, SVG Export Plug-In . SVG Version: 6.00 Build 0)  -->
<svg version="1.1" id="Ebene_1" xmlns="http://www.w3.org/2000/svg" xmlns:xlink="http://www.w3.org/1999/xlink" x="0px" y="0px"
	 viewBox="0 0 427.4 96.4" enable-background="new 0 0 427.4 96.4" xml:space="preserve">
<g>
	<path fill="#004A93" d="M124.2,23.2h7.1c1.1,0,2.1,0.4,3.1,1l4.2,3.1c1.1,0.7,1.8,2.1,1.8,3.2v5.9h-25.2v-5.9
		c0-1.2,0.7-2.5,1.8-3.2l4.2-3.1C122,23.6,123.1,23.2,124.2,23.2z M124.1,14.6c-3.3,0-6.5,1-9.3,3l-4.2,3c-3.3,2.4-5.3,6.2-5.3,9.9
		v17c0,3.7,2,7.5,5.3,9.8l4.2,3.1c2.8,2,6,3,9.3,3h20.7c3.3,0,5.5-1.9,5.5-4.3c0-2.5-2.1-4.3-5.5-4.3h-20.5c-0.9,0-1.9-0.1-3.1-0.9
		l-4.2-3.1c-1.1-0.7-1.8-2-1.8-3.2v-2.3h29.6c3.3,0,5.5-1.9,5.5-4.3V30.5c0-3.7-2-7.5-5.3-9.9l-4.2-3c-2.8-2-6.2-3-9.4-3H124.1z"/>
	<path fill="#004A93" d="M213.4,58.4v0.2c0,2.8-2.2,4.8-4.8,4.8c-2.8,0-5-1.8-5.1-4.7l-1.3-33.8c0-0.9-0.8-1.6-1.9-1.6
		c-0.4,0-0.9,0-1.3,0.3l-6.1,4.7v30.2c0,3-2.1,4.9-5,4.9c-2.8,0-5.1-2-5.1-4.9V25.1c0-0.9-0.9-1.8-2.1-1.8c-0.4,0-0.9,0-1.4,0.4
		l-7,5v29.8c0,3-2.1,4.9-5,4.9c-2.8,0-5-2-5-4.9V19.3c0-3.1,2.1-4.8,5-4.8c2.2,0,3.8,1,4.7,3.2l1.6-1.1c2.1-1.5,4.2-2.1,6.9-2.1
		c3.8,0,6.8,1.2,9.8,4l1.2-0.8c2.6-1.9,4.8-3.2,8.3-3.2c6.9,0,11.9,4.3,12.1,9.9L213.4,58.4z"/>
	<path fill="#004A93" d="M244.7,23.2h7.1c1.1,0,2.1,0.4,3.1,1l4.2,3.1c1.1,0.7,1.8,2.1,1.8,3.2v5.9h-25.2v-5.9
		c0-1.2,0.7-2.5,1.8-3.2l4.2-3.1C242.6,23.6,243.6,23.2,244.7,23.2z M244.6,14.6c-3.3,0-6.5,1-9.3,3l-4.2,3
		c-3.3,2.4-5.3,6.2-5.3,9.9v17c0,3.7,2,7.5,5.3,9.8l4.2,3.1c2.8,2,6,3,9.3,3h20.7c3.3,0,5.5-1.9,5.5-4.3c0-2.5-2.1-4.3-5.5-4.3
		h-20.5c-0.9,0-1.9-0.1-3.1-0.9l-4.2-3.1c-1.1-0.7-1.8-2-1.8-3.2v-2.3h29.6c3.3,0,5.5-1.9,5.5-4.3V30.5c0-3.7-2-7.5-5.3-9.9l-4.2-3
		c-2.8-2-6.2-3-9.4-3H244.6z"/>
	<path fill="#004A93" d="M297.3,14.6h15c3.4,0,5.5,1.9,5.5,4.3c0,2.5-2.2,4.3-5.5,4.3h-15v27.3c0,2.3,2,4.1,4.7,4.1h6
		c2,0,3.8-1,4.6-3c0.7-1.6,1.1-4.3,5.1-4.3c2.8,0,4.8,2.1,4.8,4.1c0,5.3-6,11.9-14.6,11.9H302c-8.1,0-14.7-5.9-14.7-12.9V23.3h-4.1
		c-3.5,0-5.5-1.9-5.5-4.3c0-2.5,2.2-4.3,5.5-4.3h4.1V4.8c0-3.1,2.1-4.8,5-4.8c2.8,0,5.1,1.9,5.1,4.8V14.6z"/>
	<path fill="#004A93" d="M348.9,23.2h7.1c1.1,0,2.1,0.4,3.1,1l4.3,3.1c1.1,0.7,1.8,2.1,1.8,3.2v5.9h-25.3v-5.9
		c0-1.2,0.7-2.5,1.8-3.2l4.2-3.1C346.8,23.6,347.8,23.2,348.9,23.2z M348.8,14.6c-3.3,0-6.5,1-9.3,3l-4.2,3
		c-3.3,2.4-5.3,6.2-5.3,9.9v17c0,3.7,2,7.5,5.3,9.8l4.2,3.1c2.8,2,6,3,9.3,3h20.7c3.3,0,5.5-1.9,5.5-4.3c0-2.5-2.1-4.3-5.5-4.3
		h-20.6c-0.9,0-1.9-0.1-3.1-0.9l-4.2-3.1c-1.1-0.7-1.8-2-1.8-3.2v-2.3h29.6c3.3,0,5.5-1.9,5.5-4.3V30.5c0-3.7-2-7.5-5.3-9.9l-4.3-3
		c-2.8-2-6.3-3-9.4-3H348.8z"/>
	<path fill="#004A93" d="M421.9,55.9h-10.5c-2,0-3.8-0.8-4.7-2L396.5,42c-0.6-0.9-0.9-1.9-0.9-3.1c0-1.2,0.4-2.2,0.9-3.1L406.7,24
		c0.9-1.2,2.7-2.1,4.7-2.1h10.5c3.4,0,5.5-2.2,5.5-4.1c0-1.9-2.2-4.1-5.5-4.1h-10.5c-6.4,0-10.6,2-13.8,6.1l-10.2,13.4
		c-1.2,1.5-1.8,3.4-1.8,5.6c0,2.2,0.6,4,1.8,5.6l10.2,13.4c3.1,4.1,7.4,6.1,13.8,6.1h10.5c3.4,0,5.5-2.2,5.5-4.1
		C427.4,58.1,425.2,55.9,421.9,55.9z"/>
	<path fill="#B8BFDF" d="M57.3,13.8h-3.1c-6.4,0-10.6,2-13.8,6.1L30.2,33.3c-1.2,1.5-1.8,3.4-1.8,5.6c0,2.2,0.6,4,1.8,5.6l10.3,13.4
		c3.1,4.1,7.4,6.1,13.8,6.1h3.1c3.4,0,5.5-2.2,5.5-4.1c0-1.9,0-40.3,0-42.1C62.8,16,60.6,13.8,57.3,13.8z"/>
	<path fill="#AB0062" d="M27,55.9h-1.2c-2,0-3.8-0.8-4.7-2L11,42c-0.6-0.9-0.9-1.9-0.9-3.1c0-1.2,0.4-2.2,0.9-3.1L21.1,24
		c0.9-1.2,2.7-2.1,4.7-2.1H27c3.4,0,5.5-2.2,5.5-4.1c0-1.9-2.2-4.1-5.5-4.1h-1.2c-6.4,0-10.6,2-13.8,6.1L1.8,33.3
		C0.6,34.9,0,36.8,0,38.9c0,2.2,0.6,4,1.8,5.6L12,57.9c3.1,4.1,7.4,6.1,13.8,6.1H27c3.4,0,5.5-2.2,5.5-4.1
		C32.6,58.1,30.3,55.9,27,55.9z"/>
	<path fill="#004A93" d="M70.7,13.8H53.3c-3.3,0-5.5,2.2-5.5,4.1c0,1.9,2.1,4.1,5.5,4.1h4.2v34h-4.2c-3.3,0-5.5,2.2-5.5,4.1
		c0,1.9,2.1,4.1,5.5,4.1h17.4c6.4,0,10.7-2,13.8-6.1l10.3-13.4c1.2-1.6,1.8-3.4,1.8-5.6c0-2.2-0.6-4-1.8-5.6L84.5,19.9
		C81.3,15.8,77.1,13.8,70.7,13.8z M70.7,21.9c2,0,3.8,0.9,4.7,2.1l10.1,11.8c0.6,0.9,0.9,1.9,0.9,3.1c0,1.2-0.4,2.2-0.9,3.1
		L75.4,53.9c-0.9,1.2-2.7,2-4.7,2h-3.3v-34H70.7z"/>
	<g>
		<path fill="#004A93" d="M59.4,82.2c0.1-0.3,0.1-0.6,0.1-0.9c0-0.6-0.3-1-1-1c-2.3,0-3,2.4-3.6,4.8l-1,4.6c0,0.2-0.1,0.2-0.3,0.2
			h-1.2c-0.1,0-0.2,0-0.2-0.1c0,0,0-0.1,0-0.2l1.6-7.4c0.1-0.3,0.1-0.6,0.1-0.9c0-0.6-0.3-1-1-1c-2.3,0-3.2,3-3.5,4.5l-1,4.9
			c0,0.2-0.1,0.2-0.3,0.2h-1.2c-0.1,0-0.2,0-0.2-0.1c0,0,0-0.1,0-0.2l1.6-7.5c0.1-0.5,0.2-1,0.2-1.3c0-0.4-0.1-0.9-0.2-1.3
			c0-0.1,0.1-0.2,0.2-0.2l0.8-0.3c0.1,0,0.2-0.1,0.3-0.1c0.2,0,0.4,0.6,0.4,1.1c0,0.4,0,0.7,0,1h0c0.7-1.1,1.8-2.1,3.6-2.1
			c1.1,0,1.9,0.6,1.9,2.1h0c0.8-1.1,1.9-2.1,3.6-2.1c1.2,0,2,0.6,2,1.8c0,0.5-0.1,1.1-0.2,1.6l-1.6,7.5c0,0.2-0.1,0.2-0.3,0.2H58
			c-0.1,0-0.2,0-0.2-0.1c0,0,0-0.1,0-0.2L59.4,82.2z"/>
		<path fill="#004A93" d="M71,84.3c0.2-1.1,1-4,3.5-4c1.1,0,1.6,0.6,1.6,1.5C76.2,84.3,72.2,84.3,71,84.3z M76.3,87.7
			c0-0.1-0.1-0.1-0.2-0.1c-0.3,0-1.2,1.1-3.2,1.1c-1.5,0-2.1-0.9-2.1-2.5c0-0.2,0-0.4,0-0.6c2,0,6.9,0,6.9-3.9c0-1.7-1-2.9-3-2.9
			c-3.3,0-5.7,3.5-5.7,7.3c0,2.5,1.1,4.1,3.6,4.1c2.2,0,4.1-1.3,4.1-1.6c0,0,0-0.1,0-0.1L76.3,87.7z"/>
		<path fill="#004A93" d="M91.6,84.6c-0.5,2.2-1.8,4.1-3.6,4.1c-0.9,0-1.2-0.8-1.2-1.9c0-2.4,0.8-6.5,3.6-6.5c1,0,1.4,0.3,2,0.7
			L91.6,84.6z M92.7,79.6c-0.5-0.3-1.2-0.7-2.3-0.7c-3.6,0-5.3,4.2-5.3,8.1c0,2.2,0.9,3.3,2.5,3.3c1.8,0,2.9-1.3,3.5-2.3h0
			c0,0.2,0,0.4,0,0.8c0,0.7,0.2,1.4,0.4,1.4c0.1,0,0.2-0.1,0.3-0.1l0.8-0.3c0.1,0,0.2-0.1,0.2-0.2c0-0.2-0.2-0.7-0.2-1.3
			c0-0.5,0-1.1,0.1-1.6l2.7-12.6c0-0.1,0-0.2-0.2-0.2c-0.1,0-0.2,0-0.2,0L94,74c-0.2,0-0.2,0.2-0.2,0.4L92.7,79.6z"/>
		<path fill="#004A93" d="M103.9,89.5c0,0.2-0.1,0.4-0.3,0.4h-1.2c-0.1,0-0.2,0-0.2-0.1c0-0.1,0-0.2,0-0.3l1.9-9.1h-1.8
			c-0.2,0-0.2-0.1-0.2-0.2c0,0,0-0.1,0-0.2l0.2-0.7c0-0.2,0.1-0.2,0.3-0.2h3c0.3,0,0.4,0,0.4,0.2c0,0.1-0.1,0.3-0.1,0.6L103.9,89.5z
			 M106.1,76.4c-0.7,0-1.3-0.6-1.3-1.3c0-0.7,0.6-1.3,1.3-1.3c0.7,0,1.3,0.6,1.3,1.3C107.3,75.8,106.7,76.4,106.1,76.4z"/>
		<path fill="#004A93" d="M115.5,84.3c0.2-1.1,1-4,3.5-4c1.1,0,1.6,0.6,1.6,1.5C120.7,84.3,116.8,84.3,115.5,84.3z M120.8,87.7
			c0-0.1-0.1-0.1-0.2-0.1c-0.3,0-1.2,1.1-3.2,1.1c-1.5,0-2.1-0.9-2.1-2.5c0-0.2,0-0.4,0-0.6c2,0,6.9,0,6.9-3.9c0-1.7-1-2.9-3-2.9
			c-3.3,0-5.7,3.5-5.7,7.3c0,2.5,1.1,4.1,3.6,4.1c2.2,0,4.1-1.3,4.1-1.6c0,0,0-0.1,0-0.1L120.8,87.7z"/>
		<path fill="#004A93" d="M131.1,82.1c0.1-0.5,0.2-1,0.2-1.3c0-0.4-0.1-0.9-0.2-1.3c0-0.1,0.1-0.2,0.2-0.2l0.8-0.3
			c0.1,0,0.2-0.1,0.3-0.1c0.2,0,0.4,0.7,0.4,1.4c0,0.4-0.1,0.8-0.1,1h0c0.8-1.2,2.1-2.4,4.1-2.4c1.2,0,2,0.6,2,1.8
			c0,0.5-0.1,1.1-0.2,1.6l-1.6,7.5c0,0.2-0.1,0.2-0.3,0.2h-1.2c-0.1,0-0.2,0-0.2-0.1c0,0,0-0.1,0-0.2l1.6-7.4
			c0.1-0.3,0.1-0.6,0.1-0.9c0-0.6-0.3-1-1-1c-2.4,0-3.7,3-4.1,4.5l-1,4.9c0,0.2-0.1,0.2-0.3,0.2h-1.2c-0.1,0-0.2,0-0.2-0.1
			c0,0,0-0.1,0-0.2L131.1,82.1z"/>
		<path fill="#004A93" d="M153.3,84.6c-0.5,2.2-1.8,4.1-3.6,4.1c-0.9,0-1.2-0.8-1.2-1.9c0-2.4,0.9-6.5,3.7-6.5c1,0,1.4,0.3,2,0.7
			L153.3,84.6z M154.4,79.6c-0.5-0.3-1.2-0.7-2.3-0.7c-3.6,0-5.3,4.2-5.3,8.1c0,2.2,0.9,3.3,2.5,3.3c1.8,0,2.8-1.3,3.5-2.3h0
			c0,0.2,0,0.4,0,0.8c0,0.7,0.2,1.4,0.4,1.4c0.1,0,0.2-0.1,0.3-0.1l0.8-0.3c0.1,0,0.2-0.1,0.2-0.2c0-0.2-0.2-0.7-0.2-1.3
			c0-0.5,0-1.1,0.1-1.6l2.7-12.6c0-0.1,0-0.2-0.2-0.2c-0.1,0-0.2,0-0.2,0l-1.1,0.3c-0.2,0-0.2,0.2-0.2,0.4L154.4,79.6z"/>
		<path fill="#004A93" d="M165.4,84.3c0.2-1.1,1-4,3.5-4c1.1,0,1.6,0.6,1.6,1.5C170.6,84.3,166.7,84.3,165.4,84.3z M170.7,87.7
			c0-0.1-0.1-0.1-0.2-0.1c-0.3,0-1.2,1.1-3.2,1.1c-1.5,0-2.1-0.9-2.1-2.5c0-0.2,0-0.4,0-0.6c2,0,6.9,0,6.9-3.9c0-1.7-1-2.9-3-2.9
			c-3.3,0-5.7,3.5-5.7,7.3c0,2.5,1.1,4.1,3.6,4.1c2.2,0,4.1-1.3,4.1-1.6c0,0,0-0.1,0-0.1L170.7,87.7z"/>
		<path fill="#004A93" d="M186.2,80.7c-0.1,0.1-0.1,0.2-0.3,0.2c-0.2,0-0.8-0.5-2-0.5c-1.1,0-1.9,0.6-1.9,1.6c0,1.2,1.5,1.7,2.5,2.6
			c0.6,0.6,1,1.2,1,2.1c0,2.3-1.7,3.6-3.9,3.6c-1.7,0-3.2-0.7-3.2-1.1c0-0.1,0.1-0.2,0.1-0.3l0.4-0.8c0.1-0.2,0.1-0.2,0.2-0.2
			c0.3,0,1.1,0.8,2.8,0.8c1,0,1.9-0.7,1.9-1.8c0-2.2-3.5-2-3.5-4.8c0-2.1,1.7-3.3,3.7-3.3c1.3,0,2.6,0.5,2.6,0.9c0,0.1,0,0.1,0,0.2
			L186.2,80.7z"/>
		<path fill="#004A93" d="M195.9,89.5c0,0.2-0.1,0.4-0.3,0.4h-1.2c-0.1,0-0.2,0-0.2-0.1c0-0.1,0-0.2,0-0.3l1.9-9.1h-1.8
			c-0.2,0-0.2-0.1-0.2-0.2c0,0,0-0.1,0-0.2l0.2-0.7c0-0.2,0.1-0.2,0.3-0.2h3c0.3,0,0.4,0,0.4,0.2c0,0.1-0.1,0.3-0.1,0.6L195.9,89.5z
			 M198,76.4c-0.7,0-1.2-0.6-1.2-1.3c0-0.7,0.6-1.3,1.2-1.3c0.7,0,1.3,0.6,1.3,1.3C199.3,75.8,198.7,76.4,198,76.4z"/>
		<path fill="#004A93" d="M212.1,84.4c-0.4,1.7-1.6,4.1-3.6,4.1c-0.8,0-1.1-0.8-1.1-1.9c0-1.6,0.9-4.8,1.8-5.6
			c0.3-0.3,0.6-0.5,1.5-0.5c1.2,0,1.9,0.6,2.1,0.8L212.1,84.4z M214.1,82.6c0.1-0.6,0.2-1.2,0.9-2.2c0.2-0.2,0.4-0.4,0.4-0.6
			c0-0.1,0-0.1-0.1-0.2l-0.6-0.6c-0.1,0-0.1-0.1-0.2-0.1c-0.3,0-0.8,0.6-1,1c-0.5-0.4-1.4-1.1-2.6-1.1c-3.8,0-5.2,4.9-5.2,7.8
			c0,1.9,0.9,3.3,2.5,3.3c1.7,0,2.7-1.5,3.3-2.3l0,0c-0.5,2-0.4,5.5-3.2,5.5c-1.6,0-2.9-1-3.2-1c-0.1,0-0.2,0.1-0.2,0.1l-0.4,1
			c0,0.1-0.1,0.2-0.1,0.3c0,0.2,2,1.1,3.7,1.1c1.9,0,3.8-0.9,4.2-3.1c0.3-1.5,0.7-3.9,1.1-5.8L214.1,82.6z"/>
		<path fill="#004A93" d="M223.5,82.1c0.1-0.5,0.2-1,0.2-1.3c0-0.4-0.1-0.9-0.2-1.3c0-0.1,0.1-0.2,0.2-0.2l0.8-0.3
			c0.1,0,0.2-0.1,0.3-0.1c0.2,0,0.4,0.7,0.4,1.4c0,0.4-0.1,0.8-0.1,1h0c0.8-1.2,2.1-2.4,4.1-2.4c1.2,0,2,0.6,2,1.8
			c0,0.5-0.1,1.1-0.2,1.6l-1.6,7.5c0,0.2-0.1,0.2-0.3,0.2H228c-0.1,0-0.2,0-0.2-0.1c0,0,0-0.1,0-0.2l1.6-7.4
			c0.1-0.3,0.1-0.6,0.1-0.9c0-0.6-0.3-1-1-1c-2.4,0-3.7,3-4.1,4.5l-1,4.9c0,0.2-0.1,0.2-0.3,0.2h-1.2c-0.1,0-0.2,0-0.2-0.1
			c0,0,0-0.1,0-0.2L223.5,82.1z"/>
		<path fill="#004A93" d="M278.6,82.1c0.1-0.5,0.2-1,0.2-1.3c0-0.4-0.1-0.9-0.2-1.3c0-0.1,0.1-0.2,0.2-0.2l0.8-0.3
			c0.1,0,0.2-0.1,0.3-0.1c0.2,0,0.4,0.7,0.4,1.4c0,0.4-0.1,0.8-0.1,1h0c0.8-1.2,2.1-2.4,4.1-2.4c1.2,0,2,0.6,2,1.8
			c0,0.5-0.1,1.1-0.2,1.6l-1.6,7.5c0,0.2-0.1,0.2-0.3,0.2h-1.2c-0.1,0-0.2,0-0.2-0.1c0,0,0-0.1,0-0.2l1.6-7.4
			c0.1-0.3,0.1-0.6,0.1-0.9c0-0.6-0.3-1-1-1c-2.4,0-3.7,3-4.1,4.5l-1,4.9c-0.1,0.2-0.1,0.2-0.3,0.2h-1.2c-0.1,0-0.2,0-0.2-0.1
			c0,0,0-0.1,0-0.2L278.6,82.1z"/>
		<path fill="#004A93" d="M296.1,84.3c0.2-1.1,1-4,3.5-4c1.1,0,1.6,0.6,1.6,1.5C301.3,84.3,297.4,84.3,296.1,84.3z M301.4,87.7
			c0-0.1-0.1-0.1-0.2-0.1c-0.3,0-1.2,1.1-3.2,1.1c-1.5,0-2.1-0.9-2.1-2.5c0-0.2,0-0.4,0-0.6c2,0,6.9,0,6.9-3.9c0-1.7-1-2.9-3-2.9
			c-3.3,0-5.7,3.5-5.7,7.3c0,2.5,1.1,4.1,3.6,4.1c2.2,0,4.1-1.3,4.1-1.6c0,0,0-0.1,0-0.1L301.4,87.7z"/>
		<path fill="#004A93" d="M315.9,89c0,0.1,0,0.2,0,0.2c0,0.4-1.7,1-3.2,1c-1.2,0-2-0.8-2-2.2c0-0.4,0.1-1,0.2-1.3l1.3-6.2h-1.6
			c-0.1,0-0.2,0-0.2-0.1c0,0,0,0,0.1-0.4l0.1-0.5c0-0.2,0.1-0.3,0.3-0.3h1.6l0.6-3.1c0-0.2,0.1-0.2,0.2-0.2l1.2-0.3c0,0,0.1,0,0.2,0
			c0.1,0,0.1,0.1,0.1,0.1c0,0.1,0,0.2,0,0.2l-0.7,3.3h3c0.1,0,0.2,0.1,0.2,0.1c0,0.1,0,0.1-0.1,0.2l-0.4,0.7
			c-0.1,0.2-0.1,0.2-0.3,0.2h-2.8l-1.3,6.2c-0.1,0.3-0.1,0.9-0.1,1.1c0,0.8,0.3,1.1,1.1,1.1c1.1,0,1.8-0.6,2.1-0.6
			c0.1,0,0.1,0,0.2,0.2L315.9,89z"/>
		<path fill="#004A93" d="M331.6,87.9L331.6,87.9c0.2-0.4,0.4-1,0.6-1.4l3.2-7.3c0-0.1,0.1-0.1,0.2-0.1c0,0,0.1,0,0.1,0l1.1,0.3
			c0.1,0,0.1,0.1,0.1,0.1c0,0.1,0,0.1,0,0.2l-5,10.3c-0.1,0.1-0.1,0.2-0.3,0.2h-0.9c-0.1,0-0.2-0.1-0.2-0.2l-0.2-6.7
			c0-0.5,0-0.9,0-1.3h0c-0.1,0.3-0.3,0.8-0.5,1.3l-3.5,6.8c-0.1,0.1-0.1,0.2-0.3,0.2H325c-0.1,0-0.2,0-0.2-0.2l-0.3-10.2v-0.2
			c0-0.2,0.1-0.2,0.2-0.2l1.2-0.2c0,0,0.1,0,0.1,0c0.1,0,0.2,0.1,0.2,0.2l-0.1,7.1c0,0.4,0,1.2,0,1.5h0c0.1-0.3,0.2-0.6,0.4-1.1
			l3.6-7.4c0.1-0.1,0.1-0.2,0.3-0.2h0.9c0.1,0,0.2,0,0.2,0.2L331.6,87.9z"/>
		<path fill="#004A93" d="M350.8,82.7c0,2.4-1.1,6.1-3.8,6.1c-1.4,0-2-0.9-2-2.3c0-2.6,1.1-6.1,3.8-6.1
			C349.9,80.3,350.8,81,350.8,82.7z M349,78.9c-3.9,0-5.7,4-5.7,7.6c0,2.7,1.3,3.7,3.4,3.7c3.8,0,5.8-4,5.8-7.6
			C352.5,80.1,351.2,78.9,349,78.9z"/>
		<path fill="#004A93" d="M361.4,82.9c0.1-0.7,0.2-1,0.2-1.7c0-0.9-0.2-1.4-0.2-1.6c0-0.1,0.1-0.2,0.2-0.3l0.9-0.4
			c0.1,0,0.2-0.1,0.3-0.1c0.2,0,0.4,0.7,0.4,1.6c0,0.2,0,0.4-0.1,0.6l0,0c0.5-1.1,1.9-2.3,3.1-2.3c0.4,0,0.8,0.1,0.8,0.3
			c0,0.1,0,0.1-0.1,0.2l-0.4,1c0,0.1-0.1,0.2-0.2,0.2c-0.2,0-0.2-0.1-0.7-0.1c-0.8,0-1.8,1.1-2.1,1.5c-0.7,1-0.9,1.9-1.1,2.8l-1,4.9
			c-0.1,0.2-0.1,0.2-0.3,0.2h-1.2c-0.1,0-0.2,0-0.2-0.1c0,0,0,0,0.1-0.4L361.4,82.9z"/>
		<path fill="#004A93" d="M374.1,89.7c0,0.2-0.1,0.2-0.3,0.2h-1.2c-0.1,0-0.2,0-0.2-0.1c0,0,0-0.1,0-0.2l3.2-15.3
			c0-0.1,0.1-0.3,0.2-0.4l1.1-0.3c0,0,0.1,0,0.2,0c0.2,0,0.2,0.1,0.2,0.2l-2.1,9.7l0,0l5.4-4.8c0,0,0.1-0.1,0.2-0.1
			c0,0,0.1,0.1,0.2,0.1l0.8,0.6c0,0,0.1,0.1,0.1,0.1c0,0.1,0,0.1-0.1,0.2l-4.9,4.1l3.4,5.4c0,0,0.1,0.1,0.1,0.1
			c0,0.1-0.1,0.2-0.2,0.2l-1,0.6c-0.1,0-0.1,0.1-0.2,0.1c-0.1,0-0.1-0.1-0.2-0.1l-3.6-6.2L374.1,89.7z"/>
		<path fill="#004A93" d="M390.4,89.5c0,0.2-0.1,0.4-0.3,0.4h-1.2c-0.1,0-0.2,0-0.2-0.1c0-0.1,0-0.2,0-0.3l1.9-9.1h-1.8
			c-0.2,0-0.2-0.1-0.2-0.2c0,0,0-0.1,0-0.2l0.2-0.7c0-0.2,0.1-0.2,0.3-0.2h3c0.3,0,0.4,0,0.4,0.2c0,0.1-0.1,0.3-0.1,0.6L390.4,89.5z
			 M392.5,76.4c-0.7,0-1.3-0.6-1.3-1.3c0-0.7,0.6-1.3,1.3-1.3c0.7,0,1.3,0.6,1.3,1.3C393.8,75.8,393.2,76.4,392.5,76.4z"/>
		<path fill="#004A93" d="M401.6,82.1c0.1-0.5,0.2-1,0.2-1.3c0-0.4-0.1-0.9-0.2-1.3c0-0.1,0.1-0.2,0.2-0.2l0.8-0.3
			c0.1,0,0.2-0.1,0.3-0.1c0.2,0,0.4,0.7,0.4,1.4c0,0.4-0.1,0.8-0.1,1h0c0.8-1.2,2.1-2.4,4.1-2.4c1.2,0,2,0.6,2,1.8
			c0,0.5-0.1,1.1-0.2,1.6l-1.6,7.5c0,0.2-0.1,0.2-0.3,0.2h-1.2c-0.1,0-0.2,0-0.2-0.1c0,0,0-0.1,0-0.2l1.6-7.4
			c0.1-0.3,0.1-0.6,0.1-0.9c0-0.6-0.3-1-1-1c-2.4,0-3.7,3-4.1,4.5l-1,4.9c0,0.2-0.1,0.2-0.3,0.2h-1.2c-0.1,0-0.2,0-0.2-0.1
			c0,0,0-0.1,0-0.2L401.6,82.1z"/>
		<path fill="#004A93" d="M423.8,84.4c-0.4,1.7-1.6,4.1-3.6,4.1c-0.8,0-1.1-0.8-1.1-1.9c0-1.6,0.9-4.8,1.8-5.6
			c0.3-0.3,0.6-0.5,1.5-0.5c1.2,0,1.9,0.6,2.1,0.8L423.8,84.4z M425.8,82.6c0.1-0.6,0.2-1.2,0.9-2.2c0.2-0.2,0.4-0.4,0.4-0.6
			c0-0.1-0.1-0.1-0.1-0.2l-0.6-0.6c-0.1,0-0.1-0.1-0.2-0.1c-0.3,0-0.8,0.6-1,1c-0.5-0.4-1.4-1.1-2.6-1.1c-3.8,0-5.2,4.9-5.2,7.8
			c0,1.9,0.9,3.3,2.5,3.3c1.7,0,2.7-1.5,3.3-2.3l0,0c-0.5,2-0.4,5.5-3.2,5.5c-1.6,0-2.9-1-3.2-1c-0.1,0-0.2,0.1-0.2,0.1l-0.4,1
			c0,0.1-0.1,0.2-0.1,0.3c0,0.2,2,1.1,3.7,1.1c1.9,0,3.8-0.9,4.2-3.1c0.3-1.5,0.7-3.9,1.1-5.8L425.8,82.6z"/>
		<path fill="#004A93" d="M259.3,84.1c0.3,0,0.3,0,0.3,0.3v1c0,0.3,0,0.3-0.3,0.3h-4v4c0,0.2,0,0.3-0.3,0.3h-1
			c-0.3,0-0.3-0.2-0.3-0.3v-4h-4c-0.3,0-0.3,0-0.3-0.3v-1c0-0.3,0-0.3,0.3-0.3h4v-4c0-0.3,0.1-0.3,0.3-0.3h1c0.2,0,0.3,0,0.3,0.3v4
			H259.3z"/>
		<path fill="none" stroke="#004A93" stroke-width="1.05" stroke-miterlimit="7" d="M265.5,84.8c0,6.1-4.9,11-11,11
			c-6.1,0-11-4.9-11-11c0-6.1,4.9-11,11-11C260.6,73.8,265.5,78.8,265.5,84.8z"/>
	</g>
</g>
</svg>
