<?xml version="1.0" encoding="utf-8"?>
<!-- Generator: Adobe Illustrator 19.2.1, SVG Export Plug-In . SVG Version: 6.00 Build 0)  -->
<svg version="1.1" id="Ebene_1" xmlns="http://www.w3.org/2000/svg" xmlns:xlink="http://www.w3.org/1999/xlink" x="0px" y="0px"
	 viewBox="0 0 768 178.6" style="enable-background:new 0 0 768 178.6;" xml:space="preserve">
<style type="text/css">
	.st0{fill:#BDCCD4;}
	.st1{fill:#AA0061;}
	.st2{fill:#004C93;}
</style>
<title>Logo-Objects_semi</title>
<g>
	<path class="st0" d="M107.4,56.5h-3.6c-7.5,0-12.4,2.3-16.2,7.2L75.5,79.4c-1.4,1.8-2.1,4.1-2.1,6.6c0,2.5,0.7,4.8,2.1,6.6
		l12.1,15.8c3.6,4.9,8.7,7.2,16.2,7.2h3.6c4.1,0,6.5-2.6,6.5-4.8V61.2C113.9,59.1,111.3,56.5,107.4,56.5"/>
	<path class="st1" d="M104.4,121.8h-2.8c-4.7,0-8.8-1.6-11-4.2l-23.8-25c-1.4-1.8-2.2-3.9-2.2-6.5c0-2.6,0.8-4.8,2.2-6.6l23.7-24.9
		c2.2-2.6,6.3-4.4,11-4.4h2.8c8,0,13-4.7,13-8.6s-5.2-8.6-13-8.6h-2.8c-14.9,0-24.8,4.2-32.3,12.9L45.4,74.2
		c-2.8,3.2-4.1,7.2-4.1,11.8s1.4,8.5,4.1,11.7l24,28.3c7.2,8.6,17.4,12.9,32.3,12.9h2.8c8,0,13-4.7,13-8.6
		C117.3,126.4,112.1,121.8,104.4,121.8"/>
	<path class="st2" d="M125.4,156.9c-8.4,0-13.7-4.4-13.7-7.7c0-2.9,4.6-7.7,13.7-7.7h4c7.7,0,15-3.4,19-8.2l33.3-35.1
		c0.1-0.1,0.2-0.4,0.3-0.5c2.5-3.4,3.9-7.3,3.9-11.5s-1.3-8.1-3.9-11.5c-0.1-0.1-0.2-0.3-0.3-0.4l-33.3-35.4
		c-4.1-4.7-11.1-7.7-19-7.7h-4c-8.4,0-13.7-4.9-13.7-8.1c0-2.9,4.6-8.1,13.7-8.1h4c19.2,0,32.4,5.6,41.8,16.9l33.8,40
		c3.3,3.9,4.9,8.6,4.9,14.2s-1.6,10.3-4.9,14.1l-33.8,40c-9.8,11.4-22.8,16.8-41.8,16.8L125.4,156.9L125.4,156.9z"/>
	<path class="st2" d="M237.1,95.1c0,5,0.7,7,5.2,10.4l9.9,7.7c2.2,1.6,4.9,3.9,6.7,3.9h13.2c2.5,0,4.1-0.5,5.4-1.4l7.6-5.7
		c2-1.4,2.2-5.2,2.2-8.3V73.9c0-3.1-0.9-5.5-2.3-6.5L277,62c-1.1-0.8-2.3-1.3-4.1-1.3h-12.1c-2.3,0-5.2,1.2-7.2,2.8l-11.2,8.7
		c-2.9,2.1-5.2,4.5-5.2,9.3V95.1z M237.1,56.5l3.1-2.8c5.8-5.2,9.2-8.6,17.1-8.6h19.1c4.5,0,8.5,2.3,12.8,5.5l5.9,4.6
		c6.8,5.3,9.4,9.7,9.4,18v31.4c0,8.3-2.5,12.7-9.4,18l-5.9,4.5c-4.1,3.1-9.2,5.5-13.5,5.5h-17.8c-7,0-11.9-3.9-16.8-7.9l-4-3.4v1
		c0,5-1.8,10.4-8.6,10.4c-7.4,0-8.6-5.5-8.6-10.9v-98c0-5.4,1.3-10.7,8.6-10.7c7.4,0,8.6,5.4,8.6,10.7V56.5z"/>
	<path class="st2" d="M357.5,137c0,8.6,0,15.3-7,21.9c-7,6.8-14.4,6.8-20.2,6.8h-14.4c-4.9,0-10.6-0.5-16.2-4.4
		c-5-3.4-9.9-10.4-9.9-16.2c0-4.2,4-7.7,8.5-7.7c4.7,0,7.6,2.3,8.8,6.1c1.8,5.9,4.7,6.5,11.2,6.5h11.4c11,0,10.6-4.1,10.6-13.2V60.6
		h-20.9c-5,0-11.9-1-11.9-7.8c0-6.7,6.1-7.8,11.9-7.8h25.4c9.9,0,12.8,1.6,12.8,10.9V137z"/>
	<path class="st2" d="M385.7,84.6h50.2v-9.5c0-2.9,0.2-5.4-2.2-7.3l-6.7-5.2c-2.2-1.8-5.6-2-8.3-2h-14.6c-3.2,0-5.9,0-8.8,1.8
		l-5.9,3.9c-2.2,1.4-3.6,2.6-3.6,7.1L385.7,84.6L385.7,84.6z M400.1,132.6c-7.2,0-10.1,0-15.5-4.2l-7.4-5.9
		c-6.8-5.5-8.8-9.1-8.8-17.6v-30c0-8.3,1.3-13.2,8.5-18.7l6.1-4.7c8.1-6.3,12.1-6.5,19.1-6.5H418c8.5,0,12.4,0.8,19.1,5.7l7,5
		c7.9,5.7,9,11.7,9,20.3v12.5c0,8.9-1.6,11.5-11.9,11.5h-55.6v5.2c0,1.4,1.3,3.4,2.5,4.5l4.3,4.2c2.3,2.3,5.8,2.9,11.5,2.9h37.1
		c5.8,0,11.9,1.2,11.9,7.8c0,6.8-6.8,7.8-11.9,7.8L400.1,132.6L400.1,132.6z"/>
	<path class="st2" d="M462.4,81.3c0-9.6,2-14.3,10.3-20.5l12.8-9.6c8.1-6,12.3-6.1,22.3-6.1h27.4c5.8,0,11.9,1.2,11.9,7.8
		c0,6.8-6.8,7.8-11.9,7.8h-30.5c-3.4,0-6.8,1.6-9.9,3.9l-10.5,7.9c-2.7,2-4.7,3.6-4.7,6.7v19.4c0,3.1,2,4.7,4.7,6.7l10.5,7.9
		c3.1,2.3,6.5,3.9,9.9,3.9h30.5c5,0,11.9,1,11.9,7.8c0,6.7-6.1,7.8-11.9,7.8h-27.4c-10.1,0-14.2-0.2-22.3-6.1l-12.8-9.6
		c-8.3-6.2-10.3-10.9-10.3-20.5L462.4,81.3L462.4,81.3z"/>
	<path class="st2" d="M586.9,103.2c0,8.7-0.4,13.8,11.5,13.8h8.8c7,0,10.3-0.5,12.1-6.8c1.1-3.7,4.3-6.3,8.6-6.3
		c4.9,0,8.8,3.4,8.8,7.8s-3.1,9.9-5.9,13c-6.3,6.8-14.6,7.9-23.8,7.9h-8.8c-8.6,0-16.2-1.8-22.3-7.8c-6.7-6.7-6.3-13.3-6.3-21.8
		V60.7H564c-5,0-11.9-1-11.9-7.8c0-6.7,6.1-7.8,11.9-7.8h5.6V29.2c0-5.4,1.3-10.7,8.6-10.7c7.4,0,8.6,5.4,8.6,10.7v15.9h29
		c5.8,0,11.9,1.2,11.9,7.8c0,6.8-6.8,7.8-11.9,7.8h-29V103.2z"/>
	<path class="st2" d="M671.6,60.6c-3.6,0-9.7-0.6-9.7,4.4c0,2.6,2.2,3.6,4.7,4.6l43.2,17.7c11.2,4.5,16.9,10.9,16.9,22.1
		c0,15.8-11.9,23.2-28.5,23.2h-26.7c-9,0-15.1-0.4-21.6-4.9c-3.2-2.3-7.9-5.2-7.9-9.1c0-4.4,4.1-7.8,9-7.8c2.7,0,4.7,0.8,6.7,2.8
		c3.1,3.1,8.5,3.4,13.9,3.4H695c6.1,0,14.4,0.5,14.4-8.6c0-3.7-5-6.1-9-7.8l-40.7-16.8c-9.6-3.9-15.1-8.9-15.1-19
		c0-12.3,10.8-19.8,23.8-19.8h29.6c9.6,0,13.5,0.5,20,5.4c3.2,2.4,6.8,4.4,6.8,8.7c0,4.4-4.1,7.8-8.8,7.8c-3.2,0-5.2-1.2-7.4-3.2
		c-2.9-2.8-5.9-3.1-10.6-3.1L671.6,60.6L671.6,60.6z"/>
</g>
</svg>
