<?xml version="1.0" encoding="utf-8"?>
<!-- Generator: Adobe Illustrator 21.0.2, SVG Export Plug-In . SVG Version: 6.00 Build 0)  -->
<svg version="1.1" id="Ebene_1" xmlns="http://www.w3.org/2000/svg" xmlns:xlink="http://www.w3.org/1999/xlink" x="0px" y="0px"
	 viewBox="0 0 400 105" style="enable-background:new 0 0 400 105;" xml:space="preserve">
<style type="text/css">
	.st0{fill:#00457C;}
	.st1{fill:#2DAFE6;}
	.st2{fill:#4DA32F;}
</style>
<g>
	<path class="st0" d="M268.8,69.1c-0.3-4.2-2.4-7.3-6.9-7.3c-3.8,0-6.6,2.9-7.1,7.3H268.8z M276.2,74.4h-21.3c0.9,4.3,4,6.9,9.3,6.9
		c7.4,0,11.2-2.9,11.2-2.9l-1.1,5.8c0,0-3.9,2.9-11,2.9c-10.3,0-16.4-6.2-16.4-15.4c0-8.8,5.8-15.3,15.1-15.3
		c9.1,0,14.2,6.3,14.2,15.3V74.4z M50.9,80.7c0-2.3,1.5-4.1,3.7-4.1c2.8,0,4.1,2.1,3.5,4.4c0,0,1.4,1,4.1,1c3.4,0,5.6-1.3,5.6-3.9
		c0-2.3-1.9-3-5.6-4l-2.1-0.4c-5.1-1.3-8.8-3.2-8.8-8.2c0-5.7,4.5-9.1,12.7-9.1c8,0,12,2.9,12,6.4c0,2.3-1.4,4.1-3.6,4.1
		c-2.8,0-4.1-2.1-3.4-4.5c0,0-1.3-0.9-4-0.9c-3.6,0-5.6,1.3-5.6,3.7c0,2.4,2.1,3,6,3.9l2,0.6c5.4,1.3,8.9,3.1,8.9,8.3
		c0,5.6-4.7,9.3-13.1,9.3C55,87.2,50.9,84.4,50.9,80.7z M215.2,77.1V65.7c-1.3-1.4-3.4-2.9-6.4-2.9c-5,0-8,3.5-8,8.5
		c0,5,3.1,8.5,8,8.5C211.7,79.8,213.8,78.4,215.2,77.1z M225.8,63.4h-3.1v21.9c0,9-5.8,14.6-16.1,14.6c-8.7,0-13-3.3-13-7.2
		c0-2.4,1.4-4.3,3.8-4.3c2.8,0,4.3,2.2,3.6,4.5c0,0,1.3,1.5,5.2,1.5c5.7,0,8.8-3.3,8.8-9.3v-2.4c-1.7,1.5-4.6,3.3-8.7,3.3
		c-8.3,0-13.7-6.3-13.7-14.8c0-8.3,5.3-14.8,13.7-14.8c4.1,0,7.1,1.8,8.7,3.3v-2.8h10.7V63.4z M315.3,80.3v6.3h-11.4V69.5
		c0-4.1-1.8-6.4-5.6-6.4c-3.3,0-5.6,2.2-6.9,4.1v19.4h-7.7V63.4h-3.7v-6.3h11.5v4c1.7-2,4.9-4.6,9.7-4.6c7.3,0,10.6,4.7,10.6,11.6
		v12.2H315.3z M231.3,49c0-2.6,2-4.5,5-4.5c3,0,4.7,1.8,4.7,4.4c0,2.6-1.8,4.5-4.7,4.5C233.3,53.4,231.3,51.5,231.3,49z M240.5,86.6
		h-7.8V63.4h-3.2v-6.3h11V86.6z M189.7,80.3v6.3h-11.6V48.3h-3.7V42h11.7v38.3H189.7z M164.7,69.1c-0.3-4.2-2.4-7.3-6.9-7.3
		c-3.7,0-6.6,2.9-7.1,7.3H164.7z M172.1,74.4h-21.3c0.9,4.3,4,6.9,9.3,6.9c7.4,0,11.2-2.9,11.2-2.9l-1.1,5.8c0,0-3.9,2.9-11,2.9
		c-10.3,0-16.4-6.2-16.4-15.4c0-8.8,5.8-15.3,15.1-15.3c9.1,0,14.2,6.3,14.2,15.3V74.4z M130.1,71.8c0-5.2-3.2-8.8-8.2-8.8
		c-3.1,0-5.2,1.4-6.5,2.9v12c1.3,1.4,3.4,2.9,6.5,2.9C126.9,80.7,130.1,77.1,130.1,71.8z M138.1,71.8c0,8.7-5.5,15.4-13.8,15.4
		c-4.2,0-7.1-1.9-8.8-3.4v2.8h-7.6V48.3h-3.7V42h11.4v18c1.8-1.7,4.6-3.5,8.8-3.5C132.6,56.5,138.1,63.2,138.1,71.8z M103,78.5
		l-1.2,6.9c0,0-2.1,1.8-6.6,1.8c-6.8,0-11-3.7-11-11.4V63.4h-4.5v-6.3h4.5v-8.7l7.8-2.5v11.2h10.4v6.3H92v11.1c0,4,2,5.6,5.1,5.6
		C100.7,80.2,103,78.5,103,78.5z M37.9,66.2c0-8.3-5.2-13.4-12.3-13.4s-12.1,5.2-12.1,13.4s5.1,13.4,12.1,13.4
		C32.9,79.6,37.9,74.4,37.9,66.2z M4.9,66.3c0-12.5,8.7-21.2,20.7-21.2c12.6,0,20.7,8.8,20.7,20.7c0,12.3-8.8,21.4-20.7,21.4
		C13,87.2,4.9,78.1,4.9,66.3z"/>
	<path class="st1" d="M343.2,28.7c7.4,0,13.1-1.9,20.4-4.8c-2.5-1.7-5.5-2.5-8.4-2.5c-3.9,0-10.1,2.2-19.1,2.2
		c-7.2,0-13.1-1.5-19.3-5.7C323.4,24.8,332.7,28.7,343.2,28.7z"/>
	<path class="st1" d="M392.8,15.9c-3.6-1-6.9-1.4-10-1.4c-1.2,0-2.5,0.1-3.7,0.2c0.7,0.8,1.4,1.7,2.1,2.5
		C384.8,16.1,388.6,15.7,392.8,15.9z"/>
	<path class="st2" d="M317.9,21c6,5.9,16,9.4,25.2,9.4c7.8,0,14.9-2.4,22-5.4c1.4,1.2,2.8,2.6,3.7,4.3c-7.2,4-13.3,7.4-22.4,7.4
		C334.9,36.6,323.6,29.6,317.9,21z"/>
	<path class="st2" d="M383.7,21c-0.4-0.8-1-1.5-1.5-2.3c2.9-0.8,5.9-1.2,9.1-1.2c1.2,0,2.5,0.1,3.9,0.2
		C391.3,18.2,387.5,19.3,383.7,21z"/>
	<path class="st0" d="M386.2,37.1c0,17.8-13.2,31-31,31c-17.7,0-31-13.2-31-31c0-2.2,0.2-4.5,0.7-6.6c3.9,3,8.3,5.2,12.8,6.5
		c0,10,7.1,17.6,17.4,17.6c10.4,0,17.5-7.7,17.5-17.4c0-9.6-7.5-17.4-17.4-17.4c-4.1,0-11.2,2.2-18.8,2.2c-7.9,0-14.7-2.1-20.8-7.2
		c2.8,1.2,5.3,1.7,7.7,1.7c12.2,0,15.8-10.4,32-10.4C373,6.1,386.2,19.3,386.2,37.1z"/>
</g>
</svg>
